<svg xmlns="http://www.w3.org/2000/svg" xmlns:xlink="http://www.w3.org/1999/xlink" contentStyleType="text/css" data-diagram-type="CLASS" height="991px" preserveAspectRatio="none" style="width:3269px;height:991px;background:#FFFFFF;" version="1.1" viewBox="0 0 3269 991" width="3269px" zoomAndPan="magnify"><defs/><g><!--cluster fr-line-agent-sample-app--><g class="cluster" data-entity="fr-line-agent-sample-app" data-source-line="8" data-uid="ent0002" id="cluster_fr-line-agent-sample-app"><rect fill="none" height="945.59" style="stroke:#000000;stroke-width:1.5;" width="1148" x="7" y="7"/><text fill="#000000" font-family="sans-serif" font-size="14" font-weight="bold" lengthAdjust="spacing" textLength="163.3516" x="499.3242" y="24.1074">fr-line-agent-sample-app</text></g><!--cluster Presentation--><g class="cluster" data-entity="Presentation" data-source-line="9" data-uid="ent0003" id="cluster_Presentation"><rect fill="none" height="116.24" style="stroke:#000000;stroke-width:1.5;" width="530" x="61" y="60"/><text fill="#000000" font-family="sans-serif" font-size="14" font-weight="bold" lengthAdjust="spacing" textLength="84.7998" x="283.6001" y="77.1074">Presentation</text></g><!--cluster Domain--><g class="cluster" data-entity="Domain" data-source-line="18" data-uid="ent0006" id="cluster_Domain"><rect fill="none" height="348.02" style="stroke:#000000;stroke-width:1.5;" width="352" x="161" y="200.24"/><text fill="#000000" font-family="sans-serif" font-size="14" font-weight="bold" lengthAdjust="spacing" textLength="51.3379" x="311.3311" y="217.3474">Domain</text></g><!--cluster Infrastructure--><g class="cluster" data-entity="Infrastructure" data-source-line="28" data-uid="ent0009" id="cluster_Infrastructure"><rect fill="none" height="337.4" style="stroke:#000000;stroke-width:1.5;" width="1076" x="39" y="583.19"/><text fill="#000000" font-family="sans-serif" font-size="14" font-weight="bold" lengthAdjust="spacing" textLength="91.0205" x="531.4897" y="600.2974">Infrastructure</text></g><!--cluster fr-line-agent-core--><g class="cluster" data-entity="fr-line-agent-core" data-source-line="46" data-uid="ent0014" id="cluster_fr-line-agent-core"><rect fill="none" height="642.79" style="stroke:#000000;stroke-width:1.5;" width="2068" x="1195" y="343.11"/><text fill="#000000" font-family="sans-serif" font-size="14" font-weight="bold" lengthAdjust="spacing" textLength="115.124" x="2171.438" y="360.2174">fr-line-agent-core</text></g><!--cluster Domain--><g class="cluster" data-entity="Domain" data-source-line="49" data-uid="ent0016" id="cluster_Domain"><rect fill="#D3D3D3" height="329.93" style="stroke:#000000;stroke-width:1.5;" width="721" x="1276" y="396.11"/><text fill="#000000" font-family="sans-serif" font-size="14" font-weight="bold" lengthAdjust="spacing" textLength="51.3379" x="1610.8311" y="413.2174">Domain</text></g><!--cluster Infrastructure--><g class="cluster" data-entity="Infrastructure" data-source-line="68" data-uid="ent0021" id="cluster_Infrastructure"><rect fill="#D3D3D3" height="203.86" style="stroke:#000000;stroke-width:1.5;" width="1996" x="1227" y="750.04"/><text fill="#000000" font-family="sans-serif" font-size="14" font-weight="bold" lengthAdjust="spacing" textLength="91.0205" x="2179.4897" y="767.1474">Infrastructure</text></g><!--cluster Cloud--><g class="cluster" data-entity="Cloud" data-source-line="69" data-uid="ent0022" id="cluster_Cloud"><rect fill="none" height="134.86" style="stroke:#000000;stroke-width:1.5;" width="962" x="2237" y="795.04"/><text fill="#000000" font-family="sans-serif" font-size="14" font-weight="bold" lengthAdjust="spacing" textLength="39.6553" x="2698.1724" y="812.1474">Cloud</text></g><!--cluster Mock--><g class="cluster" data-entity="Mock" data-source-line="81" data-uid="ent0026" id="cluster_Mock"><rect fill="none" height="134.86" style="stroke:#000000;stroke-width:1.5;" width="962" x="1251" y="795.04"/><text fill="#000000" font-family="sans-serif" font-size="14" font-weight="bold" lengthAdjust="spacing" textLength="35.7861" x="1714.1069" y="812.1474">Mock</text></g><!--class WebhookRoute--><g class="entity" data-entity="WebhookRoute" data-source-line="10" data-uid="ent0004" id="entity_WebhookRoute"><rect fill="#F1F1F1" height="63.2422" rx="2.5" ry="2.5" style="stroke:#181818;stroke-width:0.5;" width="231.4336" x="77.28" y="97"/><text fill="#000000" font-family="sans-serif" font-size="14" lengthAdjust="spacing" textLength="96.5029" x="144.7453" y="117.1074">WebhookRoute</text><line style="stroke:#181818;stroke-width:0.5;" x1="78.28" x2="307.7136" y1="125.6211" y2="125.6211"/><line style="stroke:#181818;stroke-width:0.5;" x1="78.28" x2="307.7136" y1="133.6211" y2="133.6211"/><ellipse cx="88.28" cy="148.4316" fill="#84BE84" rx="3" ry="3" style="stroke:#038048;stroke-width:1;"/><text fill="#000000" font-family="sans-serif" font-size="14" lengthAdjust="spacing" textLength="205.4336" x="97.28" y="152.7285">handle(call: ApplicationCall): Unit</text></g><!--class PushTriggerRoute--><g class="entity" data-entity="PushTriggerRoute" data-source-line="13" data-uid="ent0005" id="entity_PushTriggerRoute"><rect fill="#F1F1F1" height="63.2422" rx="2.5" ry="2.5" style="stroke:#181818;stroke-width:0.5;" width="231.4336" x="343.28" y="97"/><text fill="#000000" font-family="sans-serif" font-size="14" lengthAdjust="spacing" textLength="113.6133" x="402.1902" y="117.1074">PushTriggerRoute</text><line style="stroke:#181818;stroke-width:0.5;" x1="344.28" x2="573.7136" y1="125.6211" y2="125.6211"/><line style="stroke:#181818;stroke-width:0.5;" x1="344.28" x2="573.7136" y1="133.6211" y2="133.6211"/><ellipse cx="354.28" cy="148.4316" fill="#84BE84" rx="3" ry="3" style="stroke:#038048;stroke-width:1;"/><text fill="#000000" font-family="sans-serif" font-size="14" lengthAdjust="spacing" textLength="205.4336" x="363.28" y="152.7285">handle(call: ApplicationCall): Unit</text></g><!--class LineBotService--><g class="entity" data-entity="LineBotService" data-source-line="19" data-uid="ent0007" id="entity_LineBotService"><rect fill="#F1F1F1" height="81.8633" rx="2.5" ry="2.5" style="stroke:#181818;stroke-width:0.5;" width="297.5713" x="193.21" y="237.24"/><text fill="#000000" font-family="sans-serif" font-size="14" lengthAdjust="spacing" textLength="94.165" x="294.9131" y="257.3474">LineBotService</text><line style="stroke:#181818;stroke-width:0.5;" x1="194.21" x2="489.7813" y1="265.8611" y2="265.8611"/><line style="stroke:#181818;stroke-width:0.5;" x1="194.21" x2="489.7813" y1="273.8611" y2="273.8611"/><polygon fill="#FFFF44" points="204.21,283.6716,208.21,287.6716,204.21,291.6716,200.21,287.6716" style="stroke:#B38D22;stroke-width:1;"/><text fill="#000000" font-family="sans-serif" font-size="14" lengthAdjust="spacing" textLength="266.1367" x="213.21" y="292.9685">createReplyMessage(event, botId): String?</text><polygon fill="#FFFF44" points="204.21,302.2927,208.21,306.2927,204.21,310.2927,200.21,306.2927" style="stroke:#B38D22;stroke-width:1;"/><text fill="#000000" font-family="sans-serif" font-size="14" lengthAdjust="spacing" textLength="271.5713" x="213.21" y="311.5896">createPushNotifications(): List&lt;Notification&gt;</text></g><!--class SheetsRepository--><g class="entity" data-entity="SheetsRepository" data-source-line="23" data-uid="ent0008" id="entity_SheetsRepository"><rect fill="#F1F1F1" height="79.2031" rx="2.5" ry="2.5" style="stroke:#181818;stroke-width:0.5;" width="320.1709" x="176.91" y="453.06"/><text fill="#000000" font-family="sans-serif" font-size="12" font-style="italic" lengthAdjust="spacing" textLength="59.373" x="307.3089" y="471.0092">&#171;interface&#187;</text><text fill="#000000" font-family="sans-serif" font-size="14" font-style="italic" lengthAdjust="spacing" textLength="110.5029" x="281.744" y="489.1284">SheetsRepository</text><line style="stroke:#181818;stroke-width:0.5;" x1="177.91" x2="496.0809" y1="497.642" y2="497.642"/><line style="stroke:#181818;stroke-width:0.5;" x1="177.91" x2="496.0809" y1="505.642" y2="505.642"/><ellipse cx="187.91" cy="520.4526" fill="#84BE84" rx="3" ry="3" style="stroke:#038048;stroke-width:1;"/><text fill="#000000" font-family="sans-serif" font-size="14" lengthAdjust="spacing" textLength="294.1709" x="196.91" y="524.7495">fetchSheetData(range: String): List&lt;List&lt;Any&gt;&gt;</text></g><!--class GoogleSheetsRepositoryImpl--><g class="entity" data-entity="GoogleSheetsRepositoryImpl" data-source-line="29" data-uid="ent0010" id="entity_GoogleSheetsRepositoryImpl"><rect fill="#F1F1F1" height="63.2422" rx="2.5" ry="2.5" style="stroke:#181818;stroke-width:0.5;" width="320.1709" x="54.91" y="629.5"/><text fill="#000000" font-family="sans-serif" font-size="14" lengthAdjust="spacing" textLength="182.0957" x="123.9476" y="649.6074">GoogleSheetsRepositoryImpl</text><line style="stroke:#181818;stroke-width:0.5;" x1="55.91" x2="374.0809" y1="658.1211" y2="658.1211"/><line style="stroke:#181818;stroke-width:0.5;" x1="55.91" x2="374.0809" y1="666.1211" y2="666.1211"/><ellipse cx="65.91" cy="680.9316" fill="#84BE84" rx="3" ry="3" style="stroke:#038048;stroke-width:1;"/><text fill="#000000" font-family="sans-serif" font-size="14" lengthAdjust="spacing" textLength="294.1709" x="74.91" y="685.2285">fetchSheetData(range: String): List&lt;List&lt;Any&gt;&gt;</text></g><!--class LineMessagingClientImpl--><g class="entity" data-entity="LineMessagingClientImpl" data-source-line="32" data-uid="ent0011" id="entity_LineMessagingClientImpl"><rect fill="#F1F1F1" height="81.8633" rx="2.5" ry="2.5" style="stroke:#181818;stroke-width:0.5;" width="341.916" x="757.04" y="620.19"/><text fill="#000000" font-family="sans-serif" font-size="14" lengthAdjust="spacing" textLength="156.4131" x="849.7915" y="640.2974">LineMessagingClientImpl</text><line style="stroke:#181818;stroke-width:0.5;" x1="758.04" x2="1097.956" y1="648.8111" y2="648.8111"/><line style="stroke:#181818;stroke-width:0.5;" x1="758.04" x2="1097.956" y1="656.8111" y2="656.8111"/><ellipse cx="768.04" cy="671.6216" fill="#84BE84" rx="3" ry="3" style="stroke:#038048;stroke-width:1;"/><text fill="#000000" font-family="sans-serif" font-size="14" lengthAdjust="spacing" textLength="315.916" x="777.04" y="675.9185">reply(token: String, message: String): Result&lt;Unit&gt;</text><ellipse cx="768.04" cy="690.2427" fill="#84BE84" rx="3" ry="3" style="stroke:#038048;stroke-width:1;"/><text fill="#000000" font-family="sans-serif" font-size="14" lengthAdjust="spacing" textLength="293.3574" x="777.04" y="694.5396">push(to: String, message: String): Result&lt;Unit&gt;</text></g><!--class LineSignatureVerifierImpl--><g class="entity" data-entity="LineSignatureVerifierImpl" data-source-line="36" data-uid="ent0012" id="entity_LineSignatureVerifierImpl"><rect fill="#F1F1F1" height="63.2422" rx="2.5" ry="2.5" style="stroke:#181818;stroke-width:0.5;" width="312.3643" x="409.82" y="629.5"/><text fill="#000000" font-family="sans-serif" font-size="14" lengthAdjust="spacing" textLength="157.1924" x="487.4059" y="649.6074">LineSignatureVerifierImpl</text><line style="stroke:#181818;stroke-width:0.5;" x1="410.82" x2="721.1843" y1="658.1211" y2="658.1211"/><line style="stroke:#181818;stroke-width:0.5;" x1="410.82" x2="721.1843" y1="666.1211" y2="666.1211"/><ellipse cx="420.82" cy="680.9316" fill="#84BE84" rx="3" ry="3" style="stroke:#038048;stroke-width:1;"/><text fill="#000000" font-family="sans-serif" font-size="14" lengthAdjust="spacing" textLength="286.3643" x="429.82" y="685.2285">verify(body: String, signature: String): Boolean</text></g><!--class SecretManagerProvider--><g class="entity" data-entity="SecretManagerProvider" data-source-line="39" data-uid="ent0013" id="entity_SecretManagerProvider"><rect fill="#F1F1F1" height="63.2422" rx="2.5" ry="2.5" style="stroke:#181818;stroke-width:0.5;" width="205.7373" x="893.13" y="841.35"/><text fill="#000000" font-family="sans-serif" font-size="14" lengthAdjust="spacing" textLength="147.8477" x="922.0748" y="861.4574">SecretManagerProvider</text><line style="stroke:#181818;stroke-width:0.5;" x1="894.13" x2="1097.8673" y1="869.9711" y2="869.9711"/><line style="stroke:#181818;stroke-width:0.5;" x1="894.13" x2="1097.8673" y1="877.9711" y2="877.9711"/><ellipse cx="904.13" cy="892.7816" fill="#84BE84" rx="3" ry="3" style="stroke:#038048;stroke-width:1;"/><text fill="#000000" font-family="sans-serif" font-size="14" lengthAdjust="spacing" textLength="179.7373" x="913.13" y="897.0785">getSecret(key: String): String</text></g><!--class AbstractLineBotService--><g class="entity" data-entity="AbstractLineBotService" data-source-line="50" data-uid="ent0017" id="entity_AbstractLineBotService"><rect fill="#F1F1F1" height="119.1055" rx="2.5" ry="2.5" style="stroke:#181818;stroke-width:0.5;" width="320.9502" x="1291.52" y="433.11"/><text fill="#000000" font-family="sans-serif" font-size="14" font-style="italic" lengthAdjust="spacing" textLength="145.5166" x="1379.2368" y="453.2174">AbstractLineBotService</text><line style="stroke:#181818;stroke-width:0.5;" x1="1292.52" x2="1611.4702" y1="461.7311" y2="461.7311"/><line style="stroke:#181818;stroke-width:0.5;" x1="1292.52" x2="1611.4702" y1="469.7311" y2="469.7311"/><ellipse cx="1302.52" cy="484.5416" fill="#84BE84" rx="3" ry="3" style="stroke:#038048;stroke-width:1;"/><text fill="#000000" font-family="sans-serif" font-size="14" lengthAdjust="spacing" textLength="294.9502" x="1311.52" y="488.8385">handleWebhook(body, signature): Result&lt;Unit&gt;</text><ellipse cx="1302.52" cy="503.1627" fill="#84BE84" rx="3" ry="3" style="stroke:#038048;stroke-width:1;"/><text fill="#000000" font-family="sans-serif" font-size="14" lengthAdjust="spacing" textLength="178.9785" x="1311.52" y="507.4596">executePush(): Result&lt;Unit&gt;</text><polygon fill="#FFFF44" points="1302.52,516.7838,1306.52,520.7838,1302.52,524.7838,1298.52,520.7838" style="stroke:#B38D22;stroke-width:1;"/><text fill="#000000" font-family="sans-serif" font-size="14" font-style="italic" lengthAdjust="spacing" textLength="266.1367" x="1311.52" y="526.0807">createReplyMessage(event, botId): String?</text><polygon fill="#FFFF44" points="1302.52,535.4049,1306.52,539.4049,1302.52,543.4049,1298.52,539.4049" style="stroke:#B38D22;stroke-width:1;"/><text fill="#000000" font-family="sans-serif" font-size="14" font-style="italic" lengthAdjust="spacing" textLength="271.5713" x="1311.52" y="544.7018">createPushNotifications(): List&lt;Notification&gt;</text></g><!--class LineClient--><g class="entity" data-entity="LineClient" data-source-line="56" data-uid="ent0018" id="entity_LineClient"><rect fill="#F1F1F1" height="97.8242" rx="2.5" ry="2.5" style="stroke:#181818;stroke-width:0.5;" width="341.916" x="1639.04" y="612.21"/><text fill="#000000" font-family="sans-serif" font-size="12" font-style="italic" lengthAdjust="spacing" textLength="59.373" x="1780.3115" y="630.1592">&#171;interface&#187;</text><text fill="#000000" font-family="sans-serif" font-size="14" font-style="italic" lengthAdjust="spacing" textLength="62.2617" x="1778.8671" y="648.2784">LineClient</text><line style="stroke:#181818;stroke-width:0.5;" x1="1640.04" x2="1979.956" y1="656.792" y2="656.792"/><line style="stroke:#181818;stroke-width:0.5;" x1="1640.04" x2="1979.956" y1="664.792" y2="664.792"/><ellipse cx="1650.04" cy="679.6026" fill="#84BE84" rx="3" ry="3" style="stroke:#038048;stroke-width:1;"/><text fill="#000000" font-family="sans-serif" font-size="14" lengthAdjust="spacing" textLength="315.916" x="1659.04" y="683.8995">reply(token: String, message: String): Result&lt;Unit&gt;</text><ellipse cx="1650.04" cy="698.2237" fill="#84BE84" rx="3" ry="3" style="stroke:#038048;stroke-width:1;"/><text fill="#000000" font-family="sans-serif" font-size="14" lengthAdjust="spacing" textLength="293.3574" x="1659.04" y="702.5205">push(to: String, message: String): Result&lt;Unit&gt;</text></g><!--class SignatureVerifier--><g class="entity" data-entity="SignatureVerifier" data-source-line="60" data-uid="ent0019" id="entity_SignatureVerifier"><rect fill="#F1F1F1" height="79.2031" rx="2.5" ry="2.5" style="stroke:#181818;stroke-width:0.5;" width="312.3643" x="1291.82" y="621.52"/><text fill="#000000" font-family="sans-serif" font-size="12" font-style="italic" lengthAdjust="spacing" textLength="59.373" x="1418.3156" y="639.4692">&#171;interface&#187;</text><text fill="#000000" font-family="sans-serif" font-size="14" font-style="italic" lengthAdjust="spacing" textLength="104.2754" x="1395.8644" y="657.5884">SignatureVerifier</text><line style="stroke:#181818;stroke-width:0.5;" x1="1292.82" x2="1603.1843" y1="666.102" y2="666.102"/><line style="stroke:#181818;stroke-width:0.5;" x1="1292.82" x2="1603.1843" y1="674.102" y2="674.102"/><ellipse cx="1302.82" cy="688.9126" fill="#84BE84" rx="3" ry="3" style="stroke:#038048;stroke-width:1;"/><text fill="#000000" font-family="sans-serif" font-size="14" lengthAdjust="spacing" textLength="286.3643" x="1311.82" y="693.2095">verify(body: String, signature: String): Boolean</text></g><!--class SecretProvider--><g class="entity" data-entity="SecretProvider" data-source-line="63" data-uid="ent0020" id="entity_SecretProvider"><rect fill="#F1F1F1" height="79.2031" rx="2.5" ry="2.5" style="stroke:#181818;stroke-width:0.5;" width="205.7373" x="1775.13" y="453.06"/><text fill="#000000" font-family="sans-serif" font-size="12" font-style="italic" lengthAdjust="spacing" textLength="59.373" x="1848.3121" y="471.0092">&#171;interface&#187;</text><text fill="#000000" font-family="sans-serif" font-size="14" font-style="italic" lengthAdjust="spacing" textLength="92.5928" x="1831.7023" y="489.1284">SecretProvider</text><line style="stroke:#181818;stroke-width:0.5;" x1="1776.13" x2="1979.8673" y1="497.642" y2="497.642"/><line style="stroke:#181818;stroke-width:0.5;" x1="1776.13" x2="1979.8673" y1="505.642" y2="505.642"/><ellipse cx="1786.13" cy="520.4526" fill="#84BE84" rx="3" ry="3" style="stroke:#038048;stroke-width:1;"/><text fill="#000000" font-family="sans-serif" font-size="14" lengthAdjust="spacing" textLength="179.7373" x="1795.13" y="524.7495">getSecret(key: String): String</text></g><!--class LineMessagingCloudClient--><g class="entity" data-entity="LineMessagingCloudClient" data-source-line="70" data-uid="ent0023" id="entity_LineMessagingCloudClient"><rect fill="#F1F1F1" height="81.8633" rx="2.5" ry="2.5" style="stroke:#181818;stroke-width:0.5;" width="341.916" x="2600.04" y="832.04"/><text fill="#000000" font-family="sans-serif" font-size="14" lengthAdjust="spacing" textLength="166.5439" x="2687.726" y="852.1474">LineMessagingCloudClient</text><line style="stroke:#181818;stroke-width:0.5;" x1="2601.04" x2="2940.956" y1="860.6611" y2="860.6611"/><line style="stroke:#181818;stroke-width:0.5;" x1="2601.04" x2="2940.956" y1="868.6611" y2="868.6611"/><ellipse cx="2611.04" cy="883.4716" fill="#84BE84" rx="3" ry="3" style="stroke:#038048;stroke-width:1;"/><text fill="#000000" font-family="sans-serif" font-size="14" lengthAdjust="spacing" textLength="315.916" x="2620.04" y="887.7685">reply(token: String, message: String): Result&lt;Unit&gt;</text><ellipse cx="2611.04" cy="902.0927" fill="#84BE84" rx="3" ry="3" style="stroke:#038048;stroke-width:1;"/><text fill="#000000" font-family="sans-serif" font-size="14" lengthAdjust="spacing" textLength="293.3574" x="2620.04" y="906.3896">push(to: String, message: String): Result&lt;Unit&gt;</text></g><!--class LineSignatureCloudVerifier--><g class="entity" data-entity="LineSignatureCloudVerifier" data-source-line="74" data-uid="ent0024" id="entity_LineSignatureCloudVerifier"><rect fill="#F1F1F1" height="63.2422" rx="2.5" ry="2.5" style="stroke:#181818;stroke-width:0.5;" width="312.3643" x="2252.82" y="841.35"/><text fill="#000000" font-family="sans-serif" font-size="14" lengthAdjust="spacing" textLength="167.3232" x="2325.3405" y="861.4574">LineSignatureCloudVerifier</text><line style="stroke:#181818;stroke-width:0.5;" x1="2253.82" x2="2564.1843" y1="869.9711" y2="869.9711"/><line style="stroke:#181818;stroke-width:0.5;" x1="2253.82" x2="2564.1843" y1="877.9711" y2="877.9711"/><ellipse cx="2263.82" cy="892.7816" fill="#84BE84" rx="3" ry="3" style="stroke:#038048;stroke-width:1;"/><text fill="#000000" font-family="sans-serif" font-size="14" lengthAdjust="spacing" textLength="286.3643" x="2272.82" y="897.0785">verify(body: String, signature: String): Boolean</text></g><!--class GoogleSecretProvider--><g class="entity" data-entity="GoogleSecretProvider" data-source-line="77" data-uid="ent0025" id="entity_GoogleSecretProvider"><rect fill="#F1F1F1" height="63.2422" rx="2.5" ry="2.5" style="stroke:#181818;stroke-width:0.5;" width="205.7373" x="2977.13" y="841.35"/><text fill="#000000" font-family="sans-serif" font-size="14" lengthAdjust="spacing" textLength="137.7373" x="3011.13" y="861.4574">GoogleSecretProvider</text><line style="stroke:#181818;stroke-width:0.5;" x1="2978.13" x2="3181.8673" y1="869.9711" y2="869.9711"/><line style="stroke:#181818;stroke-width:0.5;" x1="2978.13" x2="3181.8673" y1="877.9711" y2="877.9711"/><ellipse cx="2988.13" cy="892.7816" fill="#84BE84" rx="3" ry="3" style="stroke:#038048;stroke-width:1;"/><text fill="#000000" font-family="sans-serif" font-size="14" lengthAdjust="spacing" textLength="179.7373" x="2997.13" y="897.0785">getSecret(key: String): String</text></g><!--class LineMessagingMockClient--><g class="entity" data-entity="LineMessagingMockClient" data-source-line="82" data-uid="ent0027" id="entity_LineMessagingMockClient"><rect fill="#F1F1F1" height="81.8633" rx="2.5" ry="2.5" style="stroke:#181818;stroke-width:0.5;" width="341.916" x="1614.04" y="832.04"/><text fill="#000000" font-family="sans-serif" font-size="14" lengthAdjust="spacing" textLength="163.4131" x="1703.2915" y="852.1474">LineMessagingMockClient</text><line style="stroke:#181818;stroke-width:0.5;" x1="1615.04" x2="1954.956" y1="860.6611" y2="860.6611"/><line style="stroke:#181818;stroke-width:0.5;" x1="1615.04" x2="1954.956" y1="868.6611" y2="868.6611"/><ellipse cx="1625.04" cy="883.4716" fill="#84BE84" rx="3" ry="3" style="stroke:#038048;stroke-width:1;"/><text fill="#000000" font-family="sans-serif" font-size="14" lengthAdjust="spacing" textLength="315.916" x="1634.04" y="887.7685">reply(token: String, message: String): Result&lt;Unit&gt;</text><ellipse cx="1625.04" cy="902.0927" fill="#84BE84" rx="3" ry="3" style="stroke:#038048;stroke-width:1;"/><text fill="#000000" font-family="sans-serif" font-size="14" lengthAdjust="spacing" textLength="293.3574" x="1634.04" y="906.3896">push(to: String, message: String): Result&lt;Unit&gt;</text></g><!--class LineSignatureMockVerifier--><g class="entity" data-entity="LineSignatureMockVerifier" data-source-line="86" data-uid="ent0028" id="entity_LineSignatureMockVerifier"><rect fill="#F1F1F1" height="63.2422" rx="2.5" ry="2.5" style="stroke:#181818;stroke-width:0.5;" width="312.3643" x="1266.82" y="841.35"/><text fill="#000000" font-family="sans-serif" font-size="14" lengthAdjust="spacing" textLength="164.1924" x="1340.9059" y="861.4574">LineSignatureMockVerifier</text><line style="stroke:#181818;stroke-width:0.5;" x1="1267.82" x2="1578.1843" y1="869.9711" y2="869.9711"/><line style="stroke:#181818;stroke-width:0.5;" x1="1267.82" x2="1578.1843" y1="877.9711" y2="877.9711"/><ellipse cx="1277.82" cy="892.7816" fill="#84BE84" rx="3" ry="3" style="stroke:#038048;stroke-width:1;"/><text fill="#000000" font-family="sans-serif" font-size="14" lengthAdjust="spacing" textLength="286.3643" x="1286.82" y="897.0785">verify(body: String, signature: String): Boolean</text></g><!--class MockSecretProvider--><g class="entity" data-entity="MockSecretProvider" data-source-line="89" data-uid="ent0029" id="entity_MockSecretProvider"><rect fill="#F1F1F1" height="63.2422" rx="2.5" ry="2.5" style="stroke:#181818;stroke-width:0.5;" width="205.7373" x="1991.13" y="841.35"/><text fill="#000000" font-family="sans-serif" font-size="14" lengthAdjust="spacing" textLength="126.041" x="2030.9781" y="861.4574">MockSecretProvider</text><line style="stroke:#181818;stroke-width:0.5;" x1="1992.13" x2="2195.8673" y1="869.9711" y2="869.9711"/><line style="stroke:#181818;stroke-width:0.5;" x1="1992.13" x2="2195.8673" y1="877.9711" y2="877.9711"/><ellipse cx="2002.13" cy="892.7816" fill="#84BE84" rx="3" ry="3" style="stroke:#038048;stroke-width:1;"/><text fill="#000000" font-family="sans-serif" font-size="14" lengthAdjust="spacing" textLength="179.7373" x="2011.13" y="897.0785">getSecret(key: String): String</text></g><!--link fr-line-agent-sample-app to fr-line-agent-core--><!--link WebhookRoute to LineBotService--><g class="link" data-entity-1="WebhookRoute" data-entity-2="LineBotService" data-source-line="99" data-uid="lnk30" id="link_WebhookRoute_LineBotService"><path codeLine="99" d="M250.97,160.71 C250.97,182.93 250.97,206.73 250.97,230.76" fill="none" id="WebhookRoute-to-LineBotService" style="stroke:#181818;stroke-width:1;"/><polygon fill="#181818" points="250.97,236.76,254.97,227.76,250.97,231.76,246.97,227.76,250.97,236.76" style="stroke:#181818;stroke-width:1;"/></g><!--link PushTriggerRoute to LineBotService--><g class="link" data-entity-1="PushTriggerRoute" data-entity-2="LineBotService" data-source-line="100" data-uid="lnk31" id="link_PushTriggerRoute_LineBotService"><path codeLine="100" d="M417.03,160.71 C417.03,182.93 417.03,206.73 417.03,230.76" fill="none" id="PushTriggerRoute-to-LineBotService" style="stroke:#181818;stroke-width:1;"/><polygon fill="#181818" points="417.03,236.76,421.03,227.76,417.03,231.76,413.03,227.76,417.03,236.76" style="stroke:#181818;stroke-width:1;"/></g><!--reverse link AbstractLineBotService to LineBotService--><g class="link" data-entity-1="AbstractLineBotService" data-entity-2="LineBotService" data-source-line="103" data-uid="lnk33" id="link_AbstractLineBotService_LineBotService"><path codeLine="103" d="M1273.24,442.9 C976.69,442.9 391.6,442.9 391.6,442.9 C391.6,442.9 391.6,368.11 391.6,319.32" fill="none" id="AbstractLineBotService-backto-LineBotService" style="stroke:#181818;stroke-width:1;stroke-dasharray:7,7;"/><polygon fill="none" points="1291.24,442.9,1273.24,436.9,1273.24,448.9,1291.24,442.9" style="stroke:#181818;stroke-width:1;"/></g><!--link LineBotService to SheetsRepository--><g class="link" data-entity-1="LineBotService" data-entity-2="SheetsRepository" data-source-line="104" data-uid="lnk34" id="link_LineBotService_SheetsRepository"><path codeLine="104" d="M292.4,319.53 C292.4,358 292.4,408.93 292.4,446.88" fill="none" id="LineBotService-to-SheetsRepository" style="stroke:#181818;stroke-width:1;"/><polygon fill="#181818" points="292.4,452.88,296.4,443.88,292.4,447.88,288.4,443.88,292.4,452.88" style="stroke:#181818;stroke-width:1;"/></g><!--link AbstractLineBotService to LineClient--><g class="link" data-entity-1="AbstractLineBotService" data-entity-2="LineClient" data-source-line="105" data-uid="lnk35" id="link_AbstractLineBotService_LineClient"><path codeLine="105" d="M1608.33,552.71 C1608.33,584.85 1608.33,617.9 1608.33,617.9 C1608.33,617.9 1614.54,617.9 1632.96,617.9" fill="none" id="AbstractLineBotService-to-LineClient" style="stroke:#181818;stroke-width:1;"/><polygon fill="#181818" points="1638.96,617.9,1629.96,613.9,1633.96,617.9,1629.96,621.9,1638.96,617.9" style="stroke:#181818;stroke-width:1;"/></g><!--link AbstractLineBotService to SignatureVerifier--><g class="link" data-entity-1="AbstractLineBotService" data-entity-2="SignatureVerifier" data-source-line="106" data-uid="lnk36" id="link_AbstractLineBotService_SignatureVerifier"><path codeLine="106" d="M1500.06,552.53 C1500.06,575.32 1500.06,594.72 1500.06,615.22" fill="none" id="AbstractLineBotService-to-SignatureVerifier" style="stroke:#181818;stroke-width:1;"/><polygon fill="#181818" points="1500.06,621.22,1504.06,612.22,1500.06,616.22,1496.06,612.22,1500.06,621.22" style="stroke:#181818;stroke-width:1;"/></g><!--reverse link SheetsRepository to GoogleSheetsRepositoryImpl--><g class="link" data-entity-1="SheetsRepository" data-entity-2="GoogleSheetsRepositoryImpl" data-source-line="109" data-uid="lnk38" id="link_SheetsRepository_GoogleSheetsRepositoryImpl"><path codeLine="109" d="M276,550.58 C276,580.07 276,601.67 276,629.09" fill="none" id="SheetsRepository-backto-GoogleSheetsRepositoryImpl" style="stroke:#181818;stroke-width:1;stroke-dasharray:7,7;"/><polygon fill="none" points="276,532.58,270,550.58,282,550.58,276,532.58" style="stroke:#181818;stroke-width:1;"/></g><!--reverse link LineClient to LineMessagingClientImpl--><g class="link" data-entity-1="LineClient" data-entity-2="LineMessagingClientImpl" data-source-line="110" data-uid="lnk40" id="link_LineClient_LineMessagingClientImpl"><path codeLine="110" d="M1620.87,705.9 C1396.04,705.9 1047.43,705.9 1047.43,705.9 C1047.43,705.9 1047.43,704.58 1047.43,702.39" fill="none" id="LineClient-backto-LineMessagingClientImpl" style="stroke:#181818;stroke-width:1;stroke-dasharray:7,7;"/><polygon fill="none" points="1638.87,705.9,1620.87,699.9,1620.87,711.9,1638.87,705.9" style="stroke:#181818;stroke-width:1;"/></g><!--reverse link SignatureVerifier to LineSignatureVerifierImpl--><g class="link" data-entity-1="SignatureVerifier" data-entity-2="LineSignatureVerifierImpl" data-source-line="111" data-uid="lnk42" id="link_SignatureVerifier_LineSignatureVerifierImpl"><path codeLine="111" d="M1395.94,603.33 C1395.94,603.33 648.45,614.9 648.45,614.9 C648.45,614.9 648.45,621.13 648.45,629.02" fill="none" id="SignatureVerifier-backto-LineSignatureVerifierImpl" style="stroke:#181818;stroke-width:1;stroke-dasharray:7,7;"/><polygon fill="none" points="1395.94,621.33,1401.94,603.33,1389.94,603.33,1395.94,621.33" style="stroke:#181818;stroke-width:1;"/></g><!--reverse link SecretProvider to SecretManagerProvider--><g class="link" data-entity-1="SecretProvider" data-entity-2="SecretManagerProvider" data-source-line="112" data-uid="lnk44" id="link_SecretProvider_SecretManagerProvider"><path codeLine="112" d="M1878,550.58 C1878,574.34 1878,581.9 1878,581.9 C1878,581.9 1147,581.9 1147,581.9 C1147,581.9 1147,872.9 1147,872.9 C1147,872.9 1125.77,872.9 1099.22,872.9" fill="none" id="SecretProvider-backto-SecretManagerProvider" style="stroke:#181818;stroke-width:1;stroke-dasharray:7,7;"/><polygon fill="none" points="1878,532.58,1872,550.58,1884,550.58,1878,532.58" style="stroke:#181818;stroke-width:1;"/></g><!--reverse link LineClient to LineMessagingCloudClient--><g class="link" data-entity-1="LineClient" data-entity-2="LineMessagingCloudClient" data-source-line="115" data-uid="lnk46" id="link_LineClient_LineMessagingCloudClient"><path codeLine="115" d="M1968.46,728.09 C1968.46,780.1 1968.46,836.9 1968.46,836.9 C1968.46,836.9 2364.12,836.9 2599.82,836.9" fill="none" id="LineClient-backto-LineMessagingCloudClient" style="stroke:#181818;stroke-width:1;stroke-dasharray:7,7;"/><polygon fill="none" points="1968.46,710.09,1962.46,728.09,1974.46,728.09,1968.46,710.09" style="stroke:#181818;stroke-width:1;"/></g><!--reverse link SignatureVerifier to LineSignatureCloudVerifier--><g class="link" data-entity-1="SignatureVerifier" data-entity-2="LineSignatureCloudVerifier" data-source-line="116" data-uid="lnk48" id="link_SignatureVerifier_LineSignatureCloudVerifier"><path codeLine="116" d="M1591.68,719.18 C1591.68,746.18 1591.68,758.9 1591.68,758.9 C1591.68,758.9 2409,758.9 2409,758.9 C2409,758.9 2409,807.15 2409,840.89" fill="none" id="SignatureVerifier-backto-LineSignatureCloudVerifier" style="stroke:#181818;stroke-width:1;stroke-dasharray:7,7;"/><polygon fill="none" points="1591.68,701.18,1585.68,719.18,1597.68,719.18,1591.68,701.18" style="stroke:#181818;stroke-width:1;"/></g><!--reverse link SecretProvider to GoogleSecretProvider--><g class="link" data-entity-1="SecretProvider" data-entity-2="GoogleSecretProvider" data-source-line="117" data-uid="lnk50" id="link_SecretProvider_GoogleSecretProvider"><path codeLine="117" d="M1999.26,500.9 C2290.6,500.9 3080,500.9 3080,500.9 C3080,500.9 3080,750.67 3080,840.92" fill="none" id="SecretProvider-backto-GoogleSecretProvider" style="stroke:#181818;stroke-width:1;stroke-dasharray:7,7;"/><polygon fill="none" points="1981.26,500.9,1999.26,506.9,1999.26,494.9,1981.26,500.9" style="stroke:#181818;stroke-width:1;"/></g><!--reverse link LineClient to LineMessagingMockClient--><g class="link" data-entity-1="LineClient" data-entity-2="LineMessagingMockClient" data-source-line="118" data-uid="lnk52" id="link_LineClient_LineMessagingMockClient"><path codeLine="118" d="M1797.5,728.53 C1797.5,765.33 1797.5,797 1797.5,831.69" fill="none" id="LineClient-backto-LineMessagingMockClient" style="stroke:#181818;stroke-width:1;stroke-dasharray:7,7;"/><polygon fill="none" points="1797.5,710.53,1791.5,728.53,1803.5,728.53,1797.5,710.53" style="stroke:#181818;stroke-width:1;"/></g><!--reverse link SignatureVerifier to LineSignatureMockVerifier--><g class="link" data-entity-1="SignatureVerifier" data-entity-2="LineSignatureMockVerifier" data-source-line="119" data-uid="lnk54" id="link_SignatureVerifier_LineSignatureMockVerifier"><path codeLine="119" d="M1435.5,718.97 C1435.5,759.48 1435.5,803.46 1435.5,840.91" fill="none" id="SignatureVerifier-backto-LineSignatureMockVerifier" style="stroke:#181818;stroke-width:1;stroke-dasharray:7,7;"/><polygon fill="none" points="1435.5,700.97,1429.5,718.97,1441.5,718.97,1435.5,700.97" style="stroke:#181818;stroke-width:1;"/></g><!--reverse link SecretProvider to MockSecretProvider--><g class="link" data-entity-1="SecretProvider" data-entity-2="MockSecretProvider" data-source-line="120" data-uid="lnk56" id="link_SecretProvider_MockSecretProvider"><path codeLine="120" d="M1999.26,524.9 C2054.79,524.9 2094,524.9 2094,524.9 C2094,524.9 2094,755.23 2094,841.16" fill="none" id="SecretProvider-backto-MockSecretProvider" style="stroke:#181818;stroke-width:1;stroke-dasharray:7,7;"/><polygon fill="none" points="1981.26,524.9,1999.26,530.9,1999.26,518.9,1981.26,524.9" style="stroke:#181818;stroke-width:1;"/></g><!--link GoogleSheetsRepositoryImpl to SecretManagerProvider--><g class="link" data-entity-1="GoogleSheetsRepositoryImpl" data-entity-2="SecretManagerProvider" data-source-line="123" data-uid="lnk57" id="link_GoogleSheetsRepositoryImpl_SecretManagerProvider"><path codeLine="123" d="M215,692.83 C215,751.91 215,872.9 215,872.9 C215,872.9 674.43,872.9 886.69,872.9" fill="none" id="GoogleSheetsRepositoryImpl-to-SecretManagerProvider" style="stroke:#181818;stroke-width:1;"/><polygon fill="#181818" points="892.69,872.9,883.69,868.9,887.69,872.9,883.69,876.9,892.69,872.9" style="stroke:#181818;stroke-width:1;"/></g><!--link LineMessagingClientImpl to LineMessagingCloudClient--><g class="link" data-entity-1="LineMessagingClientImpl" data-entity-2="LineMessagingCloudClient" data-source-line="126" data-uid="lnk58" id="link_LineMessagingClientImpl_LineMessagingCloudClient"><path codeLine="126" d="M996,702.33 C996,719.23 996,734.9 996,734.9 C996,734.9 2714.01,734.9 2714.01,734.9 C2714.01,734.9 2714.01,784.87 2714.01,825.54" fill="none" id="LineMessagingClientImpl-to-LineMessagingCloudClient" style="stroke:#181818;stroke-width:1;stroke-dasharray:7,7;"/><polygon fill="#181818" points="2714.01,831.54,2718.01,822.54,2714.01,826.54,2710.01,822.54,2714.01,831.54" style="stroke:#181818;stroke-width:1;"/></g><!--link LineMessagingClientImpl to LineMessagingMockClient--><g class="link" data-entity-1="LineMessagingClientImpl" data-entity-2="LineMessagingMockClient" data-source-line="127" data-uid="lnk59" id="link_LineMessagingClientImpl_LineMessagingMockClient"><path codeLine="127" d="M944.57,702.34 C944.57,754.29 944.57,836.9 944.57,836.9 C944.57,836.9 1361.89,836.9 1607.66,836.9" fill="none" id="LineMessagingClientImpl-to-LineMessagingMockClient" style="stroke:#181818;stroke-width:1;stroke-dasharray:7,7;"/><polygon fill="#181818" points="1613.66,836.9,1604.66,832.9,1608.66,836.9,1604.66,840.9,1613.66,836.9" style="stroke:#181818;stroke-width:1;"/></g><!--link LineSignatureVerifierImpl to LineSignatureCloudVerifier--><g class="link" data-entity-1="LineSignatureVerifierImpl" data-entity-2="LineSignatureCloudVerifier" data-source-line="128" data-uid="lnk60" id="link_LineSignatureVerifierImpl_LineSignatureCloudVerifier"><path codeLine="128" d="M618.06,693.12 C618.06,729.2 618.06,782.9 618.06,782.9 C618.06,782.9 2330.91,782.9 2330.91,782.9 C2330.91,782.9 2330.91,809.07 2330.91,834.96" fill="none" id="LineSignatureVerifierImpl-to-LineSignatureCloudVerifier" style="stroke:#181818;stroke-width:1;stroke-dasharray:7,7;"/><polygon fill="#181818" points="2330.91,840.96,2334.91,831.96,2330.91,835.96,2326.91,831.96,2330.91,840.96" style="stroke:#181818;stroke-width:1;"/></g><!--link LineSignatureVerifierImpl to LineSignatureMockVerifier--><g class="link" data-entity-1="LineSignatureVerifierImpl" data-entity-2="LineSignatureMockVerifier" data-source-line="129" data-uid="lnk61" id="link_LineSignatureVerifierImpl_LineSignatureMockVerifier"><path codeLine="129" d="M513.94,692.97 C513.94,736.14 513.94,807.9 513.94,807.9 C513.94,807.9 1279.17,807.9 1279.17,807.9 C1279.17,807.9 1279.17,818.68 1279.17,835.2" fill="none" id="LineSignatureVerifierImpl-to-LineSignatureMockVerifier" style="stroke:#181818;stroke-width:1;stroke-dasharray:7,7;"/><polygon fill="#181818" points="1279.17,841.2,1283.17,832.2,1279.17,836.2,1275.17,832.2,1279.17,841.2" style="stroke:#181818;stroke-width:1;"/></g><!--link SecretManagerProvider to GoogleSecretProvider--><g class="link" data-entity-1="SecretManagerProvider" data-entity-2="GoogleSecretProvider" data-source-line="130" data-uid="lnk62" id="link_SecretManagerProvider_GoogleSecretProvider"><path codeLine="130" d="M961.71,905.05 C961.71,921.41 961.71,937.9 961.71,937.9 C961.71,937.9 3080,937.9 3080,937.9 C3080,937.9 3080,927.41 3080,911.05" fill="none" id="SecretManagerProvider-to-GoogleSecretProvider" style="stroke:#181818;stroke-width:1;stroke-dasharray:7,7;"/><polygon fill="#181818" points="3080,905.05,3076,914.05,3080,910.05,3084,914.05,3080,905.05" style="stroke:#181818;stroke-width:1;"/></g><!--link SecretManagerProvider to MockSecretProvider--><g class="link" data-entity-1="SecretManagerProvider" data-entity-2="MockSecretProvider" data-source-line="131" data-uid="lnk63" id="link_SecretManagerProvider_MockSecretProvider"><path codeLine="131" d="M1030.29,904.98 C1030.29,916.13 1030.29,925.9 1030.29,925.9 C1030.29,925.9 2094,925.9 2094,925.9 C2094,925.9 2094,922.13 2094,910.98" fill="none" id="SecretManagerProvider-to-MockSecretProvider" style="stroke:#181818;stroke-width:1;stroke-dasharray:7,7;"/><polygon fill="#181818" points="2094,904.98,2090,913.98,2094,909.98,2098,913.98,2094,904.98" style="stroke:#181818;stroke-width:1;"/></g><!--link LineMessagingCloudClient to SecretProvider--><g class="link" data-entity-1="LineMessagingCloudClient" data-entity-2="SecretProvider" data-source-line="134" data-uid="lnk64" id="link_LineMessagingCloudClient_SecretProvider"><path codeLine="134" d="M2827.99,831.56 C2827.99,736.14 2827.99,508.9 2827.99,508.9 C2827.99,508.9 2232.95,508.9 1987.02,508.9" fill="none" id="LineMessagingCloudClient-to-SecretProvider" style="stroke:#181818;stroke-width:1;"/><polygon fill="#181818" points="1981.02,508.9,1990.02,512.9,1986.02,508.9,1990.02,504.9,1981.02,508.9" style="stroke:#181818;stroke-width:1;"/></g><!--link LineSignatureCloudVerifier to SecretProvider--><g class="link" data-entity-1="LineSignatureCloudVerifier" data-entity-2="SecretProvider" data-source-line="135" data-uid="lnk65" id="link_LineSignatureCloudVerifier_SecretProvider"><path codeLine="135" d="M2487.09,841.06 C2487.09,753.66 2487.09,516.9 2487.09,516.9 C2487.09,516.9 2161.1,516.9 1987.32,516.9" fill="none" id="LineSignatureCloudVerifier-to-SecretProvider" style="stroke:#181818;stroke-width:1;"/><polygon fill="#181818" points="1981.32,516.9,1990.32,520.9,1986.32,516.9,1990.32,512.9,1981.32,516.9" style="stroke:#181818;stroke-width:1;"/></g><!--SRC=[rLTBR-Cs4BxhLn39OLqqyjuNWOh42om298iWxhQ7eWTQ6ac4AL8WgMo5hVzxXvJaw479oTOjMXsSY9ptD_EHUaV2C2GRALAMLOeQ9eLT2VIUYP8gMX1jQWxugrXigeBtTZWJOEeIY5GcbxsDaiPxci7MQIg83HKPXy38aXX9Tj8OMP24sHtq5mJlo6rDIavZ9Z9YSkWCQA9P0k6k3ktVA_8LI4m5AUWUd5W29OW4HCnGDENoAocaGXaELF6Qf0hTS4YDzQfObfjrq5ec5waARVmXlWWJQbgK75_Aye9y2mW-Hy571Hf5N6cwJVl4d6fDVeLTBkN-ILO6Ufls-P7aL2GSLZ7b_0EvAKlEOcTcWmi_V21V13D7ZSF8y6Ebyvynw0pKkOmVWc5c7sL1cIUdUwpBhJHRKCyi7Zk-9B42Qk09Ibu_WDPeQWNFMA4hY-nTWhwts2mY-ychP_FwB0rBst3r2XNkcJRN_TN8KnSc3AYKOaJR7C1eZ41gPgIgoVNrSJEA9fLAmSIvq_b83Lqfx4ReWkoSkvyRKKVHYQBTYLHHd8OAfq71j7YVfCHU7qTuX-rrthY6S3L0eDw6CuJ2wqvPn5P6xa5qNgv8qI3OS_i4kkBcslPFDB9G8dPeuCtQleYtB1FKbl0NK0WxA6_CptQpNkraKhzurPrgp- -jb3ZrOjRb5h3zp0CL6AvwLF8P2KLDt6LW6i7L7kgUzUQVIMSSB7LzqK1obY0DMKBSMwvng5icjIGLMqhgsWStxPeZ8o9JzuAaq-slWmLU2dzhtFpkjCCnXLa_5y4SmRdTCRLr171vRor-KhJkLOJkiCjfRDe2thIlY-JGiLBBYWwt7bxBtGL_G5mr1B5QahmatxhO3jzDHXCJv-0bMvjc04ymqdzX57jqEXx54z6VOIXxpjsy7ITosVCRvtEPkRrTVvJUS5ab5wC8l8IBSYteG-7pGFttu1vMVOQ1NGf7x7r9V3VYS_xRKtA8lS_pAn4V-ZbCuNoGyVuLQ5gn_pUODeD_5qlhyPz5iZrfxPVA4_26ddDMQlUbWXju-oNzQpgfD7uGsDNcX0i6j_GmZ4PNt61osVR8j7uQYus73HwgxtkBH-hImUYON5Vb-izevX0T2rldumjaC7F-Te4sJRiaDM7vBYF7YuJPYqQ1DXRJMhZTjYbE0f-xdhRolU3dhuMTxKaA_cjT9pveIfkkpSoVxmo4Nfe_4VcGJcT3zrAWF_8vYZeHo80APkFmZEzi_NhjOkiaA1zyWo-rXsj17rf3kpl54llXZnTb7rZDxC_tr3gQFPrVh_HIuQMMRBNyiBz5iG_JN4EZZgzV5iIdi8u6uCXWRsdz5nG7pJdJ-nxflm00]--></g></svg>